<?xml version="1.0" encoding="utf-8" standalone="no"?>
<!DOCTYPE svg PUBLIC "-//W3C//DTD SVG 1.1//EN"
  "http://www.w3.org/Graphics/SVG/1.1/DTD/svg11.dtd">
<svg xmlns:xlink="http://www.w3.org/1999/xlink" width="460.8pt" height="291.6pt" viewBox="0 0 460.8 291.6" xmlns="http://www.w3.org/2000/svg" version="1.1">
 <metadata>
  <rdf:RDF xmlns:dc="http://purl.org/dc/elements/1.1/" xmlns:cc="http://creativecommons.org/ns#" xmlns:rdf="http://www.w3.org/1999/02/22-rdf-syntax-ns#">
   <cc:Work>
    <dc:type rdf:resource="http://purl.org/dc/dcmitype/StillImage"/>
    <dc:date>2025-08-15T06:51:19.288866</dc:date>
    <dc:format>image/svg+xml</dc:format>
    <dc:creator>
     <cc:Agent>
      <dc:title>Matplotlib v3.6.3, https://matplotlib.org/</dc:title>
     </cc:Agent>
    </dc:creator>
   </cc:Work>
  </rdf:RDF>
 </metadata>
 <defs>
  <style type="text/css">*{stroke-linejoin: round; stroke-linecap: butt}</style>
 </defs>
 <g id="figure_1">
  <g id="patch_1">
   <path d="M 0 291.6 
L 460.8 291.6 
L 460.8 0 
L 0 0 
z
" style="fill: #ffffff"/>
  </g>
  <g id="axes_1">
   <g id="patch_2">
    <path d="M 51.84 90.36 
L 194.688 90.36 
L 194.688 34.92 
L 51.84 34.92 
L 51.84 90.36 
z
" clip-path="url(#p8a1b545d24)" style="fill: none; stroke: #000000; stroke-linejoin: miter"/>
   </g>
   <g id="patch_3">
    <path d="M 266.112 90.36 
L 408.96 90.36 
L 408.96 34.92 
L 266.112 34.92 
L 266.112 90.36 
z
" clip-path="url(#p8a1b545d24)" style="fill: none; stroke: #000000; stroke-linejoin: miter"/>
   </g>
   <g id="patch_4">
    <path d="M 33.984 261.3 
L 426.816 261.3 
L 426.816 131.94 
L 33.984 131.94 
L 33.984 261.3 
z
" clip-path="url(#p8a1b545d24)" style="fill: none; stroke: #000000; stroke-linejoin: miter"/>
   </g>
   <g id="patch_5">
    <path d="M 196.688953 62.64 
Q 230.398368 62.64 262.989748 62.64 
" clip-path="url(#p8a1b545d24)" style="fill: none; stroke: #000000; stroke-linecap: round"/>
    <path d="M 258.189748 60.24 
L 262.989748 62.64 
L 258.189748 65.04 
" clip-path="url(#p8a1b545d24)" style="fill: none; stroke: #000000; stroke-linecap: round"/>
   </g>
   <g id="patch_6">
    <path d="M 264.111047 71.88 
Q 230.401632 71.88 197.810252 71.88 
" clip-path="url(#p8a1b545d24)" style="fill: none; stroke: #000000; stroke-linecap: round"/>
    <path d="M 202.610252 74.28 
L 197.810252 71.88 
L 202.610252 69.48 
" clip-path="url(#p8a1b545d24)" style="fill: none; stroke: #000000; stroke-linecap: round"/>
   </g>
   <g id="patch_7">
    <path d="M 123.264 92.362357 
Q 123.264 111.153524 123.264 128.826658 
" clip-path="url(#p8a1b545d24)" style="fill: none; stroke: #000000; stroke-linecap: round"/>
    <path d="M 125.664 124.026658 
L 123.264 128.826658 
L 120.864 124.026658 
L 125.664 124.026658 
z
" clip-path="url(#p8a1b545d24)" style="fill: #1f77b4; stroke: #000000; stroke-linecap: round"/>
   </g>
   <g id="patch_8">
    <path d="M 337.536 92.362357 
Q 337.536 111.153524 337.536 128.826658 
" clip-path="url(#p8a1b545d24)" style="fill: none; stroke: #000000; stroke-linecap: round"/>
    <path d="M 339.936 124.026658 
L 337.536 128.826658 
L 335.136 124.026658 
L 339.936 124.026658 
z
" clip-path="url(#p8a1b545d24)" style="fill: #1f77b4; stroke: #000000; stroke-linecap: round"/>
   </g>
   <g id="text_1">
    <!-- Метрополия -->
    <g style="fill: #333333" transform="translate(90.946031 59.800469) scale(0.1 -0.1)">
     <defs>
      <path id="DejaVuSans-41c" d="M 628 4666 
L 1569 4666 
L 2759 1491 
L 3956 4666 
L 4897 4666 
L 4897 0 
L 4281 0 
L 4281 4097 
L 3078 897 
L 2444 897 
L 1241 4097 
L 1241 0 
L 628 0 
L 628 4666 
z
" transform="scale(0.015625)"/>
      <path id="DejaVuSans-435" d="M 3597 1894 
L 3597 1613 
L 953 1613 
Q 991 1019 1311 708 
Q 1631 397 2203 397 
Q 2534 397 2845 478 
Q 3156 559 3463 722 
L 3463 178 
Q 3153 47 2828 -22 
Q 2503 -91 2169 -91 
Q 1331 -91 842 396 
Q 353 884 353 1716 
Q 353 2575 817 3079 
Q 1281 3584 2069 3584 
Q 2775 3584 3186 3129 
Q 3597 2675 3597 1894 
z
M 3022 2063 
Q 3016 2534 2758 2815 
Q 2500 3097 2075 3097 
Q 1594 3097 1305 2825 
Q 1016 2553 972 2059 
L 3022 2063 
z
" transform="scale(0.015625)"/>
      <path id="DejaVuSans-442" d="M 188 3500 
L 3541 3500 
L 3541 3041 
L 2147 3041 
L 2147 0 
L 1581 0 
L 1581 3041 
L 188 3041 
L 188 3500 
z
" transform="scale(0.015625)"/>
      <path id="DejaVuSans-440" d="M 1159 525 
L 1159 -1331 
L 581 -1331 
L 581 3500 
L 1159 3500 
L 1159 2969 
Q 1341 3281 1617 3432 
Q 1894 3584 2278 3584 
Q 2916 3584 3314 3078 
Q 3713 2572 3713 1747 
Q 3713 922 3314 415 
Q 2916 -91 2278 -91 
Q 1894 -91 1617 61 
Q 1341 213 1159 525 
z
M 3116 1747 
Q 3116 2381 2855 2742 
Q 2594 3103 2138 3103 
Q 1681 3103 1420 2742 
Q 1159 2381 1159 1747 
Q 1159 1113 1420 752 
Q 1681 391 2138 391 
Q 2594 391 2855 752 
Q 3116 1113 3116 1747 
z
" transform="scale(0.015625)"/>
      <path id="DejaVuSans-43e" d="M 1959 3097 
Q 1497 3097 1228 2736 
Q 959 2375 959 1747 
Q 959 1119 1226 758 
Q 1494 397 1959 397 
Q 2419 397 2687 759 
Q 2956 1122 2956 1747 
Q 2956 2369 2687 2733 
Q 2419 3097 1959 3097 
z
M 1959 3584 
Q 2709 3584 3137 3096 
Q 3566 2609 3566 1747 
Q 3566 888 3137 398 
Q 2709 -91 1959 -91 
Q 1206 -91 779 398 
Q 353 888 353 1747 
Q 353 2609 779 3096 
Q 1206 3584 1959 3584 
z
" transform="scale(0.015625)"/>
      <path id="DejaVuSans-43f" d="M 3603 3500 
L 3603 0 
L 3025 0 
L 3025 3041 
L 1159 3041 
L 1159 0 
L 581 0 
L 581 3500 
L 3603 3500 
z
" transform="scale(0.015625)"/>
      <path id="DejaVuSans-43b" d="M 238 0 
L 238 478 
Q 806 566 981 959 
Q 1194 1513 1194 2928 
L 1194 3500 
L 3559 3500 
L 3559 0 
L 2984 0 
L 2984 3041 
L 1769 3041 
L 1769 2694 
Q 1769 1344 1494 738 
Q 1200 91 238 0 
z
" transform="scale(0.015625)"/>
      <path id="DejaVuSans-438" d="M 3578 3500 
L 3578 0 
L 3006 0 
L 3006 2809 
L 1319 0 
L 581 0 
L 581 3500 
L 1153 3500 
L 1153 697 
L 2838 3500 
L 3578 3500 
z
" transform="scale(0.015625)"/>
      <path id="DejaVuSans-44f" d="M 1181 2491 
Q 1181 2231 1381 2084 
Q 1581 1938 1953 1938 
L 2728 1938 
L 2728 3041 
L 1953 3041 
Q 1581 3041 1381 2897 
Q 1181 2753 1181 2491 
z
M 363 0 
L 1431 1534 
Q 1069 1616 828 1830 
Q 588 2044 588 2491 
Q 588 2997 923 3248 
Q 1259 3500 1938 3500 
L 3306 3500 
L 3306 0 
L 2728 0 
L 2728 1478 
L 2013 1478 
L 981 0 
L 363 0 
z
" transform="scale(0.015625)"/>
     </defs>
     <use xlink:href="#DejaVuSans-41c"/>
     <use xlink:href="#DejaVuSans-435" x="86.279297"/>
     <use xlink:href="#DejaVuSans-442" x="147.802734"/>
     <use xlink:href="#DejaVuSans-440" x="206.054688"/>
     <use xlink:href="#DejaVuSans-43e" x="269.53125"/>
     <use xlink:href="#DejaVuSans-43f" x="330.712891"/>
     <use xlink:href="#DejaVuSans-43e" x="396.09375"/>
     <use xlink:href="#DejaVuSans-43b" x="457.275391"/>
     <use xlink:href="#DejaVuSans-438" x="521.191406"/>
     <use xlink:href="#DejaVuSans-44f" x="586.181641"/>
    </g>
    <!-- Metropolis -->
    <g style="fill: #333333" transform="translate(97.294469 70.998281) scale(0.1 -0.1)">
     <defs>
      <path id="DejaVuSans-4d" d="M 628 4666 
L 1569 4666 
L 2759 1491 
L 3956 4666 
L 4897 4666 
L 4897 0 
L 4281 0 
L 4281 4097 
L 3078 897 
L 2444 897 
L 1241 4097 
L 1241 0 
L 628 0 
L 628 4666 
z
" transform="scale(0.015625)"/>
      <path id="DejaVuSans-65" d="M 3597 1894 
L 3597 1613 
L 953 1613 
Q 991 1019 1311 708 
Q 1631 397 2203 397 
Q 2534 397 2845 478 
Q 3156 559 3463 722 
L 3463 178 
Q 3153 47 2828 -22 
Q 2503 -91 2169 -91 
Q 1331 -91 842 396 
Q 353 884 353 1716 
Q 353 2575 817 3079 
Q 1281 3584 2069 3584 
Q 2775 3584 3186 3129 
Q 3597 2675 3597 1894 
z
M 3022 2063 
Q 3016 2534 2758 2815 
Q 2500 3097 2075 3097 
Q 1594 3097 1305 2825 
Q 1016 2553 972 2059 
L 3022 2063 
z
" transform="scale(0.015625)"/>
      <path id="DejaVuSans-74" d="M 1172 4494 
L 1172 3500 
L 2356 3500 
L 2356 3053 
L 1172 3053 
L 1172 1153 
Q 1172 725 1289 603 
Q 1406 481 1766 481 
L 2356 481 
L 2356 0 
L 1766 0 
Q 1100 0 847 248 
Q 594 497 594 1153 
L 594 3053 
L 172 3053 
L 172 3500 
L 594 3500 
L 594 4494 
L 1172 4494 
z
" transform="scale(0.015625)"/>
      <path id="DejaVuSans-72" d="M 2631 2963 
Q 2534 3019 2420 3045 
Q 2306 3072 2169 3072 
Q 1681 3072 1420 2755 
Q 1159 2438 1159 1844 
L 1159 0 
L 581 0 
L 581 3500 
L 1159 3500 
L 1159 2956 
Q 1341 3275 1631 3429 
Q 1922 3584 2338 3584 
Q 2397 3584 2469 3576 
Q 2541 3569 2628 3553 
L 2631 2963 
z
" transform="scale(0.015625)"/>
      <path id="DejaVuSans-6f" d="M 1959 3097 
Q 1497 3097 1228 2736 
Q 959 2375 959 1747 
Q 959 1119 1226 758 
Q 1494 397 1959 397 
Q 2419 397 2687 759 
Q 2956 1122 2956 1747 
Q 2956 2369 2687 2733 
Q 2419 3097 1959 3097 
z
M 1959 3584 
Q 2709 3584 3137 3096 
Q 3566 2609 3566 1747 
Q 3566 888 3137 398 
Q 2709 -91 1959 -91 
Q 1206 -91 779 398 
Q 353 888 353 1747 
Q 353 2609 779 3096 
Q 1206 3584 1959 3584 
z
" transform="scale(0.015625)"/>
      <path id="DejaVuSans-70" d="M 1159 525 
L 1159 -1331 
L 581 -1331 
L 581 3500 
L 1159 3500 
L 1159 2969 
Q 1341 3281 1617 3432 
Q 1894 3584 2278 3584 
Q 2916 3584 3314 3078 
Q 3713 2572 3713 1747 
Q 3713 922 3314 415 
Q 2916 -91 2278 -91 
Q 1894 -91 1617 61 
Q 1341 213 1159 525 
z
M 3116 1747 
Q 3116 2381 2855 2742 
Q 2594 3103 2138 3103 
Q 1681 3103 1420 2742 
Q 1159 2381 1159 1747 
Q 1159 1113 1420 752 
Q 1681 391 2138 391 
Q 2594 391 2855 752 
Q 3116 1113 3116 1747 
z
" transform="scale(0.015625)"/>
      <path id="DejaVuSans-6c" d="M 603 4863 
L 1178 4863 
L 1178 0 
L 603 0 
L 603 4863 
z
" transform="scale(0.015625)"/>
      <path id="DejaVuSans-69" d="M 603 3500 
L 1178 3500 
L 1178 0 
L 603 0 
L 603 3500 
z
M 603 4863 
L 1178 4863 
L 1178 4134 
L 603 4134 
L 603 4863 
z
" transform="scale(0.015625)"/>
      <path id="DejaVuSans-73" d="M 2834 3397 
L 2834 2853 
Q 2591 2978 2328 3040 
Q 2066 3103 1784 3103 
Q 1356 3103 1142 2972 
Q 928 2841 928 2578 
Q 928 2378 1081 2264 
Q 1234 2150 1697 2047 
L 1894 2003 
Q 2506 1872 2764 1633 
Q 3022 1394 3022 966 
Q 3022 478 2636 193 
Q 2250 -91 1575 -91 
Q 1294 -91 989 -36 
Q 684 19 347 128 
L 347 722 
Q 666 556 975 473 
Q 1284 391 1588 391 
Q 1994 391 2212 530 
Q 2431 669 2431 922 
Q 2431 1156 2273 1281 
Q 2116 1406 1581 1522 
L 1381 1569 
Q 847 1681 609 1914 
Q 372 2147 372 2553 
Q 372 3047 722 3315 
Q 1072 3584 1716 3584 
Q 2034 3584 2315 3537 
Q 2597 3491 2834 3397 
z
" transform="scale(0.015625)"/>
     </defs>
     <use xlink:href="#DejaVuSans-4d"/>
     <use xlink:href="#DejaVuSans-65" x="86.279297"/>
     <use xlink:href="#DejaVuSans-74" x="147.802734"/>
     <use xlink:href="#DejaVuSans-72" x="187.011719"/>
     <use xlink:href="#DejaVuSans-6f" x="225.875"/>
     <use xlink:href="#DejaVuSans-70" x="287.056641"/>
     <use xlink:href="#DejaVuSans-6f" x="350.533203"/>
     <use xlink:href="#DejaVuSans-6c" x="411.714844"/>
     <use xlink:href="#DejaVuSans-69" x="439.498047"/>
     <use xlink:href="#DejaVuSans-73" x="467.28125"/>
    </g>
   </g>
   <g id="text_2">
    <!-- Периферия -->
    <g style="fill: #333333" transform="translate(307.493031 59.800469) scale(0.1 -0.1)">
     <defs>
      <path id="DejaVuSans-41f" d="M 4184 4666 
L 4184 0 
L 3553 0 
L 3553 4134 
L 1259 4134 
L 1259 0 
L 628 0 
L 628 4666 
L 4184 4666 
z
" transform="scale(0.015625)"/>
      <path id="DejaVuSans-444" d="M 947 1747 
Q 947 1013 1173 702 
Q 1400 391 1784 391 
Q 2091 391 2447 916 
L 2447 2578 
Q 2091 3103 1784 3103 
Q 1400 3103 1173 2792 
Q 947 2481 947 1747 
z
M 2447 -1331 
L 2447 447 
Q 2269 153 2064 31 
Q 1859 -91 1600 -91 
Q 1078 -91 714 392 
Q 350 875 350 1734 
Q 350 2594 714 3089 
Q 1078 3584 1600 3584 
Q 1859 3584 2064 3465 
Q 2269 3347 2447 3053 
L 2447 4666 
L 3025 4666 
L 3025 3053 
Q 3203 3347 3408 3465 
Q 3613 3584 3872 3584 
Q 4394 3584 4758 3089 
Q 5122 2594 5122 1734 
Q 5122 875 4758 392 
Q 4394 -91 3872 -91 
Q 3613 -91 3408 31 
Q 3203 153 3025 447 
L 3025 -1331 
L 2447 -1331 
z
M 4525 1747 
Q 4525 2481 4298 2792 
Q 4072 3103 3688 3103 
Q 3381 3103 3025 2578 
L 3025 916 
Q 3381 391 3688 391 
Q 4072 391 4298 702 
Q 4525 1013 4525 1747 
z
" transform="scale(0.015625)"/>
     </defs>
     <use xlink:href="#DejaVuSans-41f"/>
     <use xlink:href="#DejaVuSans-435" x="75.195312"/>
     <use xlink:href="#DejaVuSans-440" x="136.71875"/>
     <use xlink:href="#DejaVuSans-438" x="200.195312"/>
     <use xlink:href="#DejaVuSans-444" x="265.185547"/>
     <use xlink:href="#DejaVuSans-435" x="350.683594"/>
     <use xlink:href="#DejaVuSans-440" x="412.207031"/>
     <use xlink:href="#DejaVuSans-438" x="475.683594"/>
     <use xlink:href="#DejaVuSans-44f" x="540.673828"/>
    </g>
    <!-- Periphery -->
    <g style="fill: #333333" transform="translate(313.746938 70.998281) scale(0.1 -0.1)">
     <defs>
      <path id="DejaVuSans-50" d="M 1259 4147 
L 1259 2394 
L 2053 2394 
Q 2494 2394 2734 2622 
Q 2975 2850 2975 3272 
Q 2975 3691 2734 3919 
Q 2494 4147 2053 4147 
L 1259 4147 
z
M 628 4666 
L 2053 4666 
Q 2838 4666 3239 4311 
Q 3641 3956 3641 3272 
Q 3641 2581 3239 2228 
Q 2838 1875 2053 1875 
L 1259 1875 
L 1259 0 
L 628 0 
L 628 4666 
z
" transform="scale(0.015625)"/>
      <path id="DejaVuSans-68" d="M 3513 2113 
L 3513 0 
L 2938 0 
L 2938 2094 
Q 2938 2591 2744 2837 
Q 2550 3084 2163 3084 
Q 1697 3084 1428 2787 
Q 1159 2491 1159 1978 
L 1159 0 
L 581 0 
L 581 4863 
L 1159 4863 
L 1159 2956 
Q 1366 3272 1645 3428 
Q 1925 3584 2291 3584 
Q 2894 3584 3203 3211 
Q 3513 2838 3513 2113 
z
" transform="scale(0.015625)"/>
      <path id="DejaVuSans-79" d="M 2059 -325 
Q 1816 -950 1584 -1140 
Q 1353 -1331 966 -1331 
L 506 -1331 
L 506 -850 
L 844 -850 
Q 1081 -850 1212 -737 
Q 1344 -625 1503 -206 
L 1606 56 
L 191 3500 
L 800 3500 
L 1894 763 
L 2988 3500 
L 3597 3500 
L 2059 -325 
z
" transform="scale(0.015625)"/>
     </defs>
     <use xlink:href="#DejaVuSans-50"/>
     <use xlink:href="#DejaVuSans-65" x="56.677734"/>
     <use xlink:href="#DejaVuSans-72" x="118.201172"/>
     <use xlink:href="#DejaVuSans-69" x="159.314453"/>
     <use xlink:href="#DejaVuSans-70" x="187.097656"/>
     <use xlink:href="#DejaVuSans-68" x="250.574219"/>
     <use xlink:href="#DejaVuSans-65" x="313.953125"/>
     <use xlink:href="#DejaVuSans-72" x="375.476562"/>
     <use xlink:href="#DejaVuSans-79" x="416.589844"/>
    </g>
   </g>
   <g id="text_3">
    <!-- Третий слой / Third Layer -->
    <g style="fill: #333333" transform="translate(164.694531 193.780469) scale(0.1 -0.1)">
     <defs>
      <path id="DejaVuSans-422" d="M -19 4666 
L 3928 4666 
L 3928 4134 
L 2272 4134 
L 2272 0 
L 1638 0 
L 1638 4134 
L -19 4134 
L -19 4666 
z
" transform="scale(0.015625)"/>
      <path id="DejaVuSans-439" d="M 3578 3500 
L 3578 0 
L 3006 0 
L 3006 2809 
L 1319 0 
L 581 0 
L 581 3500 
L 1153 3500 
L 1153 697 
L 2838 3500 
L 3578 3500 
z
M 1102 4833 
L 1471 4833 
Q 1505 4599 1656 4481 
Q 1808 4364 2080 4364 
Q 2349 4364 2499 4480 
Q 2649 4596 2689 4833 
L 3058 4833 
Q 3027 4386 2780 4161 
Q 2533 3936 2080 3936 
Q 1627 3936 1380 4161 
Q 1133 4386 1102 4833 
z
" transform="scale(0.015625)"/>
      <path id="DejaVuSans-20" transform="scale(0.015625)"/>
      <path id="DejaVuSans-441" d="M 3122 3366 
L 3122 2828 
Q 2878 2963 2633 3030 
Q 2388 3097 2138 3097 
Q 1578 3097 1268 2742 
Q 959 2388 959 1747 
Q 959 1106 1268 751 
Q 1578 397 2138 397 
Q 2388 397 2633 464 
Q 2878 531 3122 666 
L 3122 134 
Q 2881 22 2623 -34 
Q 2366 -91 2075 -91 
Q 1284 -91 818 406 
Q 353 903 353 1747 
Q 353 2603 823 3093 
Q 1294 3584 2113 3584 
Q 2378 3584 2631 3529 
Q 2884 3475 3122 3366 
z
" transform="scale(0.015625)"/>
      <path id="DejaVuSans-2f" d="M 1625 4666 
L 2156 4666 
L 531 -594 
L 0 -594 
L 1625 4666 
z
" transform="scale(0.015625)"/>
      <path id="DejaVuSans-54" d="M -19 4666 
L 3928 4666 
L 3928 4134 
L 2272 4134 
L 2272 0 
L 1638 0 
L 1638 4134 
L -19 4134 
L -19 4666 
z
" transform="scale(0.015625)"/>
      <path id="DejaVuSans-64" d="M 2906 2969 
L 2906 4863 
L 3481 4863 
L 3481 0 
L 2906 0 
L 2906 525 
Q 2725 213 2448 61 
Q 2172 -91 1784 -91 
Q 1150 -91 751 415 
Q 353 922 353 1747 
Q 353 2572 751 3078 
Q 1150 3584 1784 3584 
Q 2172 3584 2448 3432 
Q 2725 3281 2906 2969 
z
M 947 1747 
Q 947 1113 1208 752 
Q 1469 391 1925 391 
Q 2381 391 2643 752 
Q 2906 1113 2906 1747 
Q 2906 2381 2643 2742 
Q 2381 3103 1925 3103 
Q 1469 3103 1208 2742 
Q 947 2381 947 1747 
z
" transform="scale(0.015625)"/>
      <path id="DejaVuSans-4c" d="M 628 4666 
L 1259 4666 
L 1259 531 
L 3531 531 
L 3531 0 
L 628 0 
L 628 4666 
z
" transform="scale(0.015625)"/>
      <path id="DejaVuSans-61" d="M 2194 1759 
Q 1497 1759 1228 1600 
Q 959 1441 959 1056 
Q 959 750 1161 570 
Q 1363 391 1709 391 
Q 2188 391 2477 730 
Q 2766 1069 2766 1631 
L 2766 1759 
L 2194 1759 
z
M 3341 1997 
L 3341 0 
L 2766 0 
L 2766 531 
Q 2569 213 2275 61 
Q 1981 -91 1556 -91 
Q 1019 -91 701 211 
Q 384 513 384 1019 
Q 384 1609 779 1909 
Q 1175 2209 1959 2209 
L 2766 2209 
L 2766 2266 
Q 2766 2663 2505 2880 
Q 2244 3097 1772 3097 
Q 1472 3097 1187 3025 
Q 903 2953 641 2809 
L 641 3341 
Q 956 3463 1253 3523 
Q 1550 3584 1831 3584 
Q 2591 3584 2966 3190 
Q 3341 2797 3341 1997 
z
" transform="scale(0.015625)"/>
     </defs>
     <use xlink:href="#DejaVuSans-422"/>
     <use xlink:href="#DejaVuSans-440" x="61.083984"/>
     <use xlink:href="#DejaVuSans-435" x="124.560547"/>
     <use xlink:href="#DejaVuSans-442" x="186.083984"/>
     <use xlink:href="#DejaVuSans-438" x="244.335938"/>
     <use xlink:href="#DejaVuSans-439" x="309.326172"/>
     <use xlink:href="#DejaVuSans-20" x="374.316406"/>
     <use xlink:href="#DejaVuSans-441" x="406.103516"/>
     <use xlink:href="#DejaVuSans-43b" x="461.083984"/>
     <use xlink:href="#DejaVuSans-43e" x="525"/>
     <use xlink:href="#DejaVuSans-439" x="586.181641"/>
     <use xlink:href="#DejaVuSans-20" x="651.171875"/>
     <use xlink:href="#DejaVuSans-2f" x="682.958984"/>
     <use xlink:href="#DejaVuSans-20" x="716.650391"/>
     <use xlink:href="#DejaVuSans-54" x="748.4375"/>
     <use xlink:href="#DejaVuSans-68" x="809.521484"/>
     <use xlink:href="#DejaVuSans-69" x="872.900391"/>
     <use xlink:href="#DejaVuSans-72" x="900.683594"/>
     <use xlink:href="#DejaVuSans-64" x="940.046875"/>
     <use xlink:href="#DejaVuSans-20" x="1003.523438"/>
     <use xlink:href="#DejaVuSans-4c" x="1035.310547"/>
     <use xlink:href="#DejaVuSans-61" x="1091.023438"/>
     <use xlink:href="#DejaVuSans-79" x="1152.302734"/>
     <use xlink:href="#DejaVuSans-65" x="1211.482422"/>
     <use xlink:href="#DejaVuSans-72" x="1273.005859"/>
    </g>
    <!-- (цифровые громады, ИИ-спутники, токены смыслов, мосты) -->
    <g style="fill: #333333" transform="translate(71.44375 204.978281) scale(0.1 -0.1)">
     <defs>
      <path id="DejaVuSans-28" d="M 1984 4856 
Q 1566 4138 1362 3434 
Q 1159 2731 1159 2009 
Q 1159 1288 1364 580 
Q 1569 -128 1984 -844 
L 1484 -844 
Q 1016 -109 783 600 
Q 550 1309 550 2009 
Q 550 2706 781 3412 
Q 1013 4119 1484 4856 
L 1984 4856 
z
" transform="scale(0.015625)"/>
      <path id="DejaVuSans-446" d="M 3603 0 
L 581 0 
L 581 3500 
L 1159 3500 
L 1159 459 
L 3025 459 
L 3025 3500 
L 3603 3500 
L 3603 459 
L 4063 459 
L 4063 -884 
L 3603 -884 
L 3603 0 
z
" transform="scale(0.015625)"/>
      <path id="DejaVuSans-432" d="M 1156 1613 
L 1156 459 
L 1975 459 
Q 2369 459 2575 607 
Q 2781 756 2781 1038 
Q 2781 1319 2575 1466 
Q 2369 1613 1975 1613 
L 1156 1613 
z
M 1156 3041 
L 1156 2072 
L 1913 2072 
Q 2238 2072 2444 2201 
Q 2650 2331 2650 2563 
Q 2650 2794 2444 2917 
Q 2238 3041 1913 3041 
L 1156 3041 
z
M 581 3500 
L 1950 3500 
Q 2566 3500 2897 3275 
Q 3228 3050 3228 2634 
Q 3228 2313 3059 2123 
Q 2891 1934 2559 1888 
Q 2956 1813 3175 1575 
Q 3394 1338 3394 981 
Q 3394 513 3033 256 
Q 2672 0 2003 0 
L 581 0 
L 581 3500 
z
" transform="scale(0.015625)"/>
      <path id="DejaVuSans-44b" d="M 3907 3500 
L 4482 3500 
L 4482 0 
L 3907 0 
L 3907 3500 
z
M 4195 3584 
L 4195 3584 
z
M 2781 1038 
Q 2781 1319 2576 1466 
Q 2372 1613 1978 1613 
L 1159 1613 
L 1159 459 
L 1978 459 
Q 2372 459 2576 607 
Q 2781 756 2781 1038 
z
M 581 3500 
L 1159 3500 
L 1159 2072 
L 2003 2072 
Q 2672 2072 3033 1817 
Q 3394 1563 3394 1038 
Q 3394 513 3033 256 
Q 2672 0 2003 0 
L 581 0 
L 581 3500 
z
" transform="scale(0.015625)"/>
      <path id="DejaVuSans-433" d="M 581 0 
L 581 3500 
L 3050 3500 
L 3050 3041 
L 1159 3041 
L 1159 0 
L 581 0 
z
" transform="scale(0.015625)"/>
      <path id="DejaVuSans-43c" d="M 581 3500 
L 1422 3500 
L 2416 1156 
L 3413 3500 
L 4247 3500 
L 4247 0 
L 3669 0 
L 3669 2950 
L 2703 672 
L 2128 672 
L 1159 2950 
L 1159 0 
L 581 0 
L 581 3500 
z
" transform="scale(0.015625)"/>
      <path id="DejaVuSans-430" d="M 2194 1759 
Q 1497 1759 1228 1600 
Q 959 1441 959 1056 
Q 959 750 1161 570 
Q 1363 391 1709 391 
Q 2188 391 2477 730 
Q 2766 1069 2766 1631 
L 2766 1759 
L 2194 1759 
z
M 3341 1997 
L 3341 0 
L 2766 0 
L 2766 531 
Q 2569 213 2275 61 
Q 1981 -91 1556 -91 
Q 1019 -91 701 211 
Q 384 513 384 1019 
Q 384 1609 779 1909 
Q 1175 2209 1959 2209 
L 2766 2209 
L 2766 2266 
Q 2766 2663 2505 2880 
Q 2244 3097 1772 3097 
Q 1472 3097 1187 3025 
Q 903 2953 641 2809 
L 641 3341 
Q 956 3463 1253 3523 
Q 1550 3584 1831 3584 
Q 2591 3584 2966 3190 
Q 3341 2797 3341 1997 
z
" transform="scale(0.015625)"/>
      <path id="DejaVuSans-434" d="M 1384 459 
L 3053 459 
L 3053 3041 
L 1844 3041 
L 1844 2603 
Q 1844 1316 1475 628 
L 1384 459 
z
M 550 459 
Q 834 584 959 850 
Q 1266 1509 1266 2838 
L 1266 3500 
L 3631 3500 
L 3631 459 
L 4091 459 
L 4091 -884 
L 3631 -884 
L 3631 0 
L 794 0 
L 794 -884 
L 334 -884 
L 334 459 
L 550 459 
z
" transform="scale(0.015625)"/>
      <path id="DejaVuSans-2c" d="M 750 794 
L 1409 794 
L 1409 256 
L 897 -744 
L 494 -744 
L 750 256 
L 750 794 
z
" transform="scale(0.015625)"/>
      <path id="DejaVuSans-418" d="M 4159 4666 
L 4159 0 
L 3547 0 
L 3547 3903 
L 1478 0 
L 628 0 
L 628 4666 
L 1241 4666 
L 1241 763 
L 3309 4666 
L 4159 4666 
z
" transform="scale(0.015625)"/>
      <path id="DejaVuSans-2d" d="M 313 2009 
L 1997 2009 
L 1997 1497 
L 313 1497 
L 313 2009 
z
" transform="scale(0.015625)"/>
      <path id="DejaVuSans-443" d="M 2059 -325 
Q 1816 -950 1584 -1140 
Q 1353 -1331 966 -1331 
L 506 -1331 
L 506 -850 
L 844 -850 
Q 1081 -850 1212 -737 
Q 1344 -625 1503 -206 
L 1606 56 
L 191 3500 
L 800 3500 
L 1894 763 
L 2988 3500 
L 3597 3500 
L 2059 -325 
z
" transform="scale(0.015625)"/>
      <path id="DejaVuSans-43d" d="M 581 3500 
L 1159 3500 
L 1159 2072 
L 3025 2072 
L 3025 3500 
L 3603 3500 
L 3603 0 
L 3025 0 
L 3025 1613 
L 1159 1613 
L 1159 0 
L 581 0 
L 581 3500 
z
" transform="scale(0.015625)"/>
      <path id="DejaVuSans-43a" d="M 581 3500 
L 1153 3500 
L 1153 1856 
L 2775 3500 
L 3481 3500 
L 2144 2147 
L 3653 0 
L 3009 0 
L 1769 1766 
L 1153 1141 
L 1153 0 
L 581 0 
L 581 3500 
z
" transform="scale(0.015625)"/>
      <path id="DejaVuSans-29" d="M 513 4856 
L 1013 4856 
Q 1481 4119 1714 3412 
Q 1947 2706 1947 2009 
Q 1947 1309 1714 600 
Q 1481 -109 1013 -844 
L 513 -844 
Q 928 -128 1133 580 
Q 1338 1288 1338 2009 
Q 1338 2731 1133 3434 
Q 928 4138 513 4856 
z
" transform="scale(0.015625)"/>
     </defs>
     <use xlink:href="#DejaVuSans-28"/>
     <use xlink:href="#DejaVuSans-446" x="39.013672"/>
     <use xlink:href="#DejaVuSans-438" x="107.080078"/>
     <use xlink:href="#DejaVuSans-444" x="172.070312"/>
     <use xlink:href="#DejaVuSans-440" x="257.568359"/>
     <use xlink:href="#DejaVuSans-43e" x="321.044922"/>
     <use xlink:href="#DejaVuSans-432" x="382.226562"/>
     <use xlink:href="#DejaVuSans-44b" x="441.162109"/>
     <use xlink:href="#DejaVuSans-435" x="520.117188"/>
     <use xlink:href="#DejaVuSans-20" x="581.640625"/>
     <use xlink:href="#DejaVuSans-433" x="613.427734"/>
     <use xlink:href="#DejaVuSans-440" x="665.966797"/>
     <use xlink:href="#DejaVuSans-43e" x="729.443359"/>
     <use xlink:href="#DejaVuSans-43c" x="790.625"/>
     <use xlink:href="#DejaVuSans-430" x="866.064453"/>
     <use xlink:href="#DejaVuSans-434" x="927.34375"/>
     <use xlink:href="#DejaVuSans-44b" x="996.484375"/>
     <use xlink:href="#DejaVuSans-2c" x="1075.439453"/>
     <use xlink:href="#DejaVuSans-20" x="1107.226562"/>
     <use xlink:href="#DejaVuSans-418" x="1139.013672"/>
     <use xlink:href="#DejaVuSans-418" x="1213.818359"/>
     <use xlink:href="#DejaVuSans-2d" x="1288.623047"/>
     <use xlink:href="#DejaVuSans-441" x="1324.707031"/>
     <use xlink:href="#DejaVuSans-43f" x="1379.6875"/>
     <use xlink:href="#DejaVuSans-443" x="1445.068359"/>
     <use xlink:href="#DejaVuSans-442" x="1504.248047"/>
     <use xlink:href="#DejaVuSans-43d" x="1562.5"/>
     <use xlink:href="#DejaVuSans-438" x="1627.880859"/>
     <use xlink:href="#DejaVuSans-43a" x="1692.871094"/>
     <use xlink:href="#DejaVuSans-438" x="1753.271484"/>
     <use xlink:href="#DejaVuSans-2c" x="1818.261719"/>
     <use xlink:href="#DejaVuSans-20" x="1850.048828"/>
     <use xlink:href="#DejaVuSans-442" x="1881.835938"/>
     <use xlink:href="#DejaVuSans-43e" x="1940.087891"/>
     <use xlink:href="#DejaVuSans-43a" x="2001.269531"/>
     <use xlink:href="#DejaVuSans-435" x="2061.669922"/>
     <use xlink:href="#DejaVuSans-43d" x="2123.193359"/>
     <use xlink:href="#DejaVuSans-44b" x="2188.574219"/>
     <use xlink:href="#DejaVuSans-20" x="2267.529297"/>
     <use xlink:href="#DejaVuSans-441" x="2299.316406"/>
     <use xlink:href="#DejaVuSans-43c" x="2354.296875"/>
     <use xlink:href="#DejaVuSans-44b" x="2429.736328"/>
     <use xlink:href="#DejaVuSans-441" x="2508.691406"/>
     <use xlink:href="#DejaVuSans-43b" x="2563.671875"/>
     <use xlink:href="#DejaVuSans-43e" x="2627.587891"/>
     <use xlink:href="#DejaVuSans-432" x="2688.769531"/>
     <use xlink:href="#DejaVuSans-2c" x="2747.705078"/>
     <use xlink:href="#DejaVuSans-20" x="2779.492188"/>
     <use xlink:href="#DejaVuSans-43c" x="2811.279297"/>
     <use xlink:href="#DejaVuSans-43e" x="2886.71875"/>
     <use xlink:href="#DejaVuSans-441" x="2947.900391"/>
     <use xlink:href="#DejaVuSans-442" x="3002.880859"/>
     <use xlink:href="#DejaVuSans-44b" x="3061.132812"/>
     <use xlink:href="#DejaVuSans-29" x="3140.087891"/>
    </g>
   </g>
   <g id="text_4">
    <!-- capacities / data / ethics -->
    <g style="fill: #333333" transform="translate(68.223375 143.398594) scale(0.09 -0.09)">
     <defs>
      <path id="DejaVuSans-63" d="M 3122 3366 
L 3122 2828 
Q 2878 2963 2633 3030 
Q 2388 3097 2138 3097 
Q 1578 3097 1268 2742 
Q 959 2388 959 1747 
Q 959 1106 1268 751 
Q 1578 397 2138 397 
Q 2388 397 2633 464 
Q 2878 531 3122 666 
L 3122 134 
Q 2881 22 2623 -34 
Q 2366 -91 2075 -91 
Q 1284 -91 818 406 
Q 353 903 353 1747 
Q 353 2603 823 3093 
Q 1294 3584 2113 3584 
Q 2378 3584 2631 3529 
Q 2884 3475 3122 3366 
z
" transform="scale(0.015625)"/>
     </defs>
     <use xlink:href="#DejaVuSans-63"/>
     <use xlink:href="#DejaVuSans-61" x="54.980469"/>
     <use xlink:href="#DejaVuSans-70" x="116.259766"/>
     <use xlink:href="#DejaVuSans-61" x="179.736328"/>
     <use xlink:href="#DejaVuSans-63" x="241.015625"/>
     <use xlink:href="#DejaVuSans-69" x="295.996094"/>
     <use xlink:href="#DejaVuSans-74" x="323.779297"/>
     <use xlink:href="#DejaVuSans-69" x="362.988281"/>
     <use xlink:href="#DejaVuSans-65" x="390.771484"/>
     <use xlink:href="#DejaVuSans-73" x="452.294922"/>
     <use xlink:href="#DejaVuSans-20" x="504.394531"/>
     <use xlink:href="#DejaVuSans-2f" x="536.181641"/>
     <use xlink:href="#DejaVuSans-20" x="569.873047"/>
     <use xlink:href="#DejaVuSans-64" x="601.660156"/>
     <use xlink:href="#DejaVuSans-61" x="665.136719"/>
     <use xlink:href="#DejaVuSans-74" x="726.416016"/>
     <use xlink:href="#DejaVuSans-61" x="765.625"/>
     <use xlink:href="#DejaVuSans-20" x="826.904297"/>
     <use xlink:href="#DejaVuSans-2f" x="858.691406"/>
     <use xlink:href="#DejaVuSans-20" x="892.382812"/>
     <use xlink:href="#DejaVuSans-65" x="924.169922"/>
     <use xlink:href="#DejaVuSans-74" x="985.693359"/>
     <use xlink:href="#DejaVuSans-68" x="1024.902344"/>
     <use xlink:href="#DejaVuSans-69" x="1088.28125"/>
     <use xlink:href="#DejaVuSans-63" x="1116.064453"/>
     <use xlink:href="#DejaVuSans-73" x="1171.044922"/>
    </g>
   </g>
   <g id="text_5">
    <!-- capacities / culture -->
    <g style="fill: #333333" transform="translate(294.751547 143.398594) scale(0.09 -0.09)">
     <defs>
      <path id="DejaVuSans-75" d="M 544 1381 
L 544 3500 
L 1119 3500 
L 1119 1403 
Q 1119 906 1312 657 
Q 1506 409 1894 409 
Q 2359 409 2629 706 
Q 2900 1003 2900 1516 
L 2900 3500 
L 3475 3500 
L 3475 0 
L 2900 0 
L 2900 538 
Q 2691 219 2414 64 
Q 2138 -91 1772 -91 
Q 1169 -91 856 284 
Q 544 659 544 1381 
z
M 1991 3584 
L 1991 3584 
z
" transform="scale(0.015625)"/>
     </defs>
     <use xlink:href="#DejaVuSans-63"/>
     <use xlink:href="#DejaVuSans-61" x="54.980469"/>
     <use xlink:href="#DejaVuSans-70" x="116.259766"/>
     <use xlink:href="#DejaVuSans-61" x="179.736328"/>
     <use xlink:href="#DejaVuSans-63" x="241.015625"/>
     <use xlink:href="#DejaVuSans-69" x="295.996094"/>
     <use xlink:href="#DejaVuSans-74" x="323.779297"/>
     <use xlink:href="#DejaVuSans-69" x="362.988281"/>
     <use xlink:href="#DejaVuSans-65" x="390.771484"/>
     <use xlink:href="#DejaVuSans-73" x="452.294922"/>
     <use xlink:href="#DejaVuSans-20" x="504.394531"/>
     <use xlink:href="#DejaVuSans-2f" x="536.181641"/>
     <use xlink:href="#DejaVuSans-20" x="569.873047"/>
     <use xlink:href="#DejaVuSans-63" x="601.660156"/>
     <use xlink:href="#DejaVuSans-75" x="656.640625"/>
     <use xlink:href="#DejaVuSans-6c" x="720.019531"/>
     <use xlink:href="#DejaVuSans-74" x="747.802734"/>
     <use xlink:href="#DejaVuSans-75" x="787.011719"/>
     <use xlink:href="#DejaVuSans-72" x="850.390625"/>
     <use xlink:href="#DejaVuSans-65" x="889.253906"/>
    </g>
   </g>
  </g>
 </g>
 <defs>
  <clipPath id="p8a1b545d24">
   <rect x="7.2" y="7.2" width="446.4" height="277.2"/>
  </clipPath>
 </defs>
</svg>
